%TF.GenerationSoftware,KiCad,Pcbnew,(6.0.1)*%
%TF.CreationDate,2022-03-07T23:29:37-05:00*%
%TF.ProjectId,Aioli,41696f6c-692e-46b6-9963-61645f706362,rev?*%
%TF.SameCoordinates,Original*%
%TF.FileFunction,Soldermask,Top*%
%TF.FilePolarity,Negative*%
%FSLAX46Y46*%
G04 Gerber Fmt 4.6, Leading zero omitted, Abs format (unit mm)*
G04 Created by KiCad (PCBNEW (6.0.1)) date 2022-03-07 23:29:37*
%MOMM*%
%LPD*%
G01*
G04 APERTURE LIST*
G04 Aperture macros list*
%AMRoundRect*
0 Rectangle with rounded corners*
0 $1 Rounding radius*
0 $2 $3 $4 $5 $6 $7 $8 $9 X,Y pos of 4 corners*
0 Add a 4 corners polygon primitive as box body*
4,1,4,$2,$3,$4,$5,$6,$7,$8,$9,$2,$3,0*
0 Add four circle primitives for the rounded corners*
1,1,$1+$1,$2,$3*
1,1,$1+$1,$4,$5*
1,1,$1+$1,$6,$7*
1,1,$1+$1,$8,$9*
0 Add four rect primitives between the rounded corners*
20,1,$1+$1,$2,$3,$4,$5,0*
20,1,$1+$1,$4,$5,$6,$7,0*
20,1,$1+$1,$6,$7,$8,$9,0*
20,1,$1+$1,$8,$9,$2,$3,0*%
G04 Aperture macros list end*
%ADD10C,2.000000*%
%ADD11RoundRect,1.000000X0.000000X-0.650000X0.000000X0.650000X0.000000X0.650000X0.000000X-0.650000X0*%
%ADD12R,2.000000X2.000000*%
%ADD13C,3.987800*%
%ADD14C,1.750000*%
%ADD15O,1.000000X2.100000*%
%ADD16C,0.650000*%
%ADD17O,1.000000X1.600000*%
G04 APERTURE END LIST*
D10*
%TO.C,SW9*%
X102275000Y-88250000D03*
X107275000Y-88250000D03*
D11*
X99175000Y-95250000D03*
X110375000Y-95250000D03*
D10*
X102275000Y-102750000D03*
X104775000Y-102750000D03*
D12*
X107275000Y-102750000D03*
%TD*%
D10*
%TO.C,SW8*%
X83225000Y-88250000D03*
X88225000Y-88250000D03*
D11*
X80125000Y-95250000D03*
X91325000Y-95250000D03*
D10*
X83225000Y-102750000D03*
X85725000Y-102750000D03*
D12*
X88225000Y-102750000D03*
%TD*%
D10*
%TO.C,SW7*%
X64175000Y-88250000D03*
X69175000Y-88250000D03*
D11*
X61075000Y-95250000D03*
X72275000Y-95250000D03*
D10*
X64175000Y-102750000D03*
X66675000Y-102750000D03*
D12*
X69175000Y-102750000D03*
%TD*%
D10*
%TO.C,SW6*%
X102275000Y-69200000D03*
X107275000Y-69200000D03*
D11*
X99175000Y-76200000D03*
X110375000Y-76200000D03*
D10*
X102275000Y-83700000D03*
X104775000Y-83700000D03*
D12*
X107275000Y-83700000D03*
%TD*%
D10*
%TO.C,SW5*%
X83225000Y-69200000D03*
X88225000Y-69200000D03*
D11*
X80125000Y-76200000D03*
X91325000Y-76200000D03*
D10*
X83225000Y-83700000D03*
X85725000Y-83700000D03*
D12*
X88225000Y-83700000D03*
%TD*%
D10*
%TO.C,SW4*%
X64175000Y-69200000D03*
X69175000Y-69200000D03*
D11*
X61075000Y-76200000D03*
X72275000Y-76200000D03*
D10*
X64175000Y-83700000D03*
X66675000Y-83700000D03*
D12*
X69175000Y-83700000D03*
%TD*%
D10*
%TO.C,SW3*%
X102275000Y-50150000D03*
X107275000Y-50150000D03*
D11*
X99175000Y-57150000D03*
X110375000Y-57150000D03*
D10*
X102275000Y-64650000D03*
X104775000Y-64650000D03*
D12*
X107275000Y-64650000D03*
%TD*%
D10*
%TO.C,SW2*%
X83225000Y-50150000D03*
X88225000Y-50150000D03*
D11*
X80125000Y-57150000D03*
X91325000Y-57150000D03*
D10*
X83225000Y-64650000D03*
X85725000Y-64650000D03*
D12*
X88225000Y-64650000D03*
%TD*%
D10*
%TO.C,SW1*%
X64175000Y-50150000D03*
X69175000Y-50150000D03*
D11*
X61075000Y-57150000D03*
X72275000Y-57150000D03*
D10*
X64175000Y-64650000D03*
X66675000Y-64650000D03*
D12*
X69175000Y-64650000D03*
%TD*%
D13*
%TO.C,MX7*%
X66675000Y-95250000D03*
D14*
X61595000Y-95250000D03*
X71755000Y-95250000D03*
%TD*%
D13*
%TO.C,MX3*%
X104775000Y-57150000D03*
D14*
X99695000Y-57150000D03*
X109855000Y-57150000D03*
%TD*%
D13*
%TO.C,MX6*%
X104775000Y-76200000D03*
D14*
X99695000Y-76200000D03*
X109855000Y-76200000D03*
%TD*%
D13*
%TO.C,MX1*%
X66675000Y-57150000D03*
D14*
X61595000Y-57150000D03*
X71755000Y-57150000D03*
%TD*%
D13*
%TO.C,MX4*%
X66675000Y-76200000D03*
D14*
X61595000Y-76200000D03*
X71755000Y-76200000D03*
%TD*%
D13*
%TO.C,MX9*%
X104775000Y-95250000D03*
D14*
X99695000Y-95250000D03*
X109855000Y-95250000D03*
%TD*%
D13*
%TO.C,MX8*%
X85725000Y-95250000D03*
D14*
X80645000Y-95250000D03*
X90805000Y-95250000D03*
%TD*%
D13*
%TO.C,MX5*%
X85725000Y-76200000D03*
D14*
X80645000Y-76200000D03*
X90805000Y-76200000D03*
%TD*%
D13*
%TO.C,MX2*%
X85725000Y-57150000D03*
D14*
X80645000Y-57150000D03*
X90805000Y-57150000D03*
%TD*%
D15*
%TO.C,J1*%
X80520000Y-51548750D03*
X71880000Y-51548750D03*
D16*
X73310000Y-51018750D03*
D17*
X71880000Y-47368750D03*
D16*
X79090000Y-51018750D03*
D17*
X80520000Y-47368750D03*
%TD*%
M02*
