M48
; DRILL file {KiCad (6.0.1)} date Mon Mar  7 23:29:40 2022
; FORMAT={-:-/ absolute / inch / decimal}
; #@! TF.CreationDate,2022-03-07T23:29:40-05:00
; #@! TF.GenerationSoftware,Kicad,Pcbnew,(6.0.1)
; #@! TF.FileFunction,NonPlated,1,2,NPTH
FMAT,2
INCH
; #@! TA.AperFunction,NonPlated,NPTH,ComponentDrill
T1C0.0256
; #@! TA.AperFunction,NonPlated,NPTH,ComponentDrill
T2C0.0689
; #@! TA.AperFunction,NonPlated,NPTH,ComponentDrill
T3C0.1570
%
G90
G05
T1
X2.8862Y-2.0086
X3.1138Y-2.0086
T2
X2.425Y-2.25
X2.425Y-3.0
X2.425Y-3.75
X2.825Y-2.25
X2.825Y-3.0
X2.825Y-3.75
X3.175Y-2.25
X3.175Y-3.0
X3.175Y-3.75
X3.575Y-2.25
X3.575Y-3.0
X3.575Y-3.75
X3.925Y-2.25
X3.925Y-3.0
X3.925Y-3.75
X4.325Y-2.25
X4.325Y-3.0
X4.325Y-3.75
T3
X2.625Y-2.25
X2.625Y-3.0
X2.625Y-3.75
X3.375Y-2.25
X3.375Y-3.0
X3.375Y-3.75
X4.125Y-2.25
X4.125Y-3.0
X4.125Y-3.75
T0
M30
