%TF.GenerationSoftware,KiCad,Pcbnew,(6.0.1)*%
%TF.CreationDate,2022-03-07T23:29:37-05:00*%
%TF.ProjectId,Aioli,41696f6c-692e-46b6-9963-61645f706362,rev?*%
%TF.SameCoordinates,Original*%
%TF.FileFunction,Paste,Bot*%
%TF.FilePolarity,Positive*%
%FSLAX46Y46*%
G04 Gerber Fmt 4.6, Leading zero omitted, Abs format (unit mm)*
G04 Created by KiCad (PCBNEW (6.0.1)) date 2022-03-07 23:29:37*
%MOMM*%
%LPD*%
G01*
G04 APERTURE LIST*
G04 Aperture macros list*
%AMRoundRect*
0 Rectangle with rounded corners*
0 $1 Rounding radius*
0 $2 $3 $4 $5 $6 $7 $8 $9 X,Y pos of 4 corners*
0 Add a 4 corners polygon primitive as box body*
4,1,4,$2,$3,$4,$5,$6,$7,$8,$9,$2,$3,0*
0 Add four circle primitives for the rounded corners*
1,1,$1+$1,$2,$3*
1,1,$1+$1,$4,$5*
1,1,$1+$1,$6,$7*
1,1,$1+$1,$8,$9*
0 Add four rect primitives between the rounded corners*
20,1,$1+$1,$2,$3,$4,$5,0*
20,1,$1+$1,$4,$5,$6,$7,0*
20,1,$1+$1,$6,$7,$8,$9,0*
20,1,$1+$1,$8,$9,$2,$3,0*%
G04 Aperture macros list end*
%ADD10RoundRect,0.250000X-0.275000X0.275000X-0.275000X-0.275000X0.275000X-0.275000X0.275000X0.275000X0*%
%ADD11RoundRect,0.062500X-0.475000X0.062500X-0.475000X-0.062500X0.475000X-0.062500X0.475000X0.062500X0*%
%ADD12RoundRect,0.062500X-0.062500X0.475000X-0.062500X-0.475000X0.062500X-0.475000X0.062500X0.475000X0*%
%ADD13R,1.800000X1.100000*%
%ADD14RoundRect,0.237500X0.237500X-0.250000X0.237500X0.250000X-0.237500X0.250000X-0.237500X-0.250000X0*%
%ADD15RoundRect,0.237500X-0.250000X-0.237500X0.250000X-0.237500X0.250000X0.237500X-0.250000X0.237500X0*%
%ADD16RoundRect,0.237500X0.237500X-0.300000X0.237500X0.300000X-0.237500X0.300000X-0.237500X-0.300000X0*%
%ADD17RoundRect,0.237500X-0.237500X0.300000X-0.237500X-0.300000X0.237500X-0.300000X0.237500X0.300000X0*%
%ADD18RoundRect,0.237500X-0.300000X-0.237500X0.300000X-0.237500X0.300000X0.237500X-0.300000X0.237500X0*%
%ADD19R,1.200000X1.400000*%
%ADD20R,0.600000X1.450000*%
%ADD21R,0.300000X1.450000*%
%ADD22RoundRect,0.250000X0.625000X-0.375000X0.625000X0.375000X-0.625000X0.375000X-0.625000X-0.375000X0*%
%ADD23R,1.200000X0.900000*%
G04 APERTURE END LIST*
D10*
%TO.C,U1*%
X78150000Y-87675000D03*
X76850000Y-87675000D03*
X75550000Y-87675000D03*
X74250000Y-87675000D03*
X78150000Y-86375000D03*
X76850000Y-86375000D03*
X75550000Y-86375000D03*
X74250000Y-86375000D03*
X78150000Y-85075000D03*
X76850000Y-85075000D03*
X75550000Y-85075000D03*
X74250000Y-85075000D03*
X78150000Y-83775000D03*
X76850000Y-83775000D03*
X75550000Y-83775000D03*
X74250000Y-83775000D03*
D11*
X72862500Y-83225000D03*
X72862500Y-83725000D03*
X72862500Y-84225000D03*
X72862500Y-84725000D03*
X72862500Y-85225000D03*
X72862500Y-85725000D03*
X72862500Y-86225000D03*
X72862500Y-86725000D03*
X72862500Y-87225000D03*
X72862500Y-87725000D03*
X72862500Y-88225000D03*
D12*
X73700000Y-89062500D03*
X74200000Y-89062500D03*
X74700000Y-89062500D03*
X75200000Y-89062500D03*
X75700000Y-89062500D03*
X76200000Y-89062500D03*
X76700000Y-89062500D03*
X77200000Y-89062500D03*
X77700000Y-89062500D03*
X78200000Y-89062500D03*
X78700000Y-89062500D03*
D11*
X79537500Y-88225000D03*
X79537500Y-87725000D03*
X79537500Y-87225000D03*
X79537500Y-86725000D03*
X79537500Y-86225000D03*
X79537500Y-85725000D03*
X79537500Y-85225000D03*
X79537500Y-84725000D03*
X79537500Y-84225000D03*
X79537500Y-83725000D03*
X79537500Y-83225000D03*
D12*
X78700000Y-82387500D03*
X78200000Y-82387500D03*
X77700000Y-82387500D03*
X77200000Y-82387500D03*
X76700000Y-82387500D03*
X76200000Y-82387500D03*
X75700000Y-82387500D03*
X75200000Y-82387500D03*
X74700000Y-82387500D03*
X74200000Y-82387500D03*
X73700000Y-82387500D03*
%TD*%
D13*
%TO.C,SW10*%
X92150000Y-64825000D03*
X98350000Y-68525000D03*
X92150000Y-68525000D03*
X98350000Y-64825000D03*
%TD*%
D14*
%TO.C,R6*%
X73878918Y-90747426D03*
X73878918Y-92572426D03*
%TD*%
%TO.C,R5*%
X75406250Y-58618750D03*
X75406250Y-60443750D03*
%TD*%
%TO.C,R4*%
X76993750Y-58618750D03*
X76993750Y-60443750D03*
%TD*%
D15*
%TO.C,R3*%
X81081250Y-66675000D03*
X79256250Y-66675000D03*
%TD*%
D14*
%TO.C,R2*%
X76993750Y-68143750D03*
X76993750Y-69968750D03*
%TD*%
%TO.C,R1*%
X75406250Y-68143750D03*
X75406250Y-69968750D03*
%TD*%
D16*
%TO.C,C8*%
X76200000Y-72956250D03*
X76200000Y-74681250D03*
%TD*%
D17*
%TO.C,C7*%
X78975600Y-92512445D03*
X78975600Y-90787445D03*
%TD*%
D16*
%TO.C,C6*%
X79581110Y-78908866D03*
X79581110Y-80633866D03*
%TD*%
D17*
%TO.C,C5*%
X72263095Y-92527784D03*
X72263095Y-90802784D03*
%TD*%
D16*
%TO.C,C4*%
X72814952Y-78896829D03*
X72814952Y-80621829D03*
%TD*%
%TO.C,C3*%
X76250000Y-77718750D03*
X76250000Y-79443750D03*
%TD*%
D18*
%TO.C,C2*%
X96112500Y-82550000D03*
X94387500Y-82550000D03*
%TD*%
%TO.C,C1*%
X96112500Y-88900000D03*
X94387500Y-88900000D03*
%TD*%
D19*
%TO.C,Y1*%
X96100000Y-86825000D03*
X96100000Y-84625000D03*
X94400000Y-84625000D03*
X94400000Y-86825000D03*
%TD*%
D20*
%TO.C,J1*%
X79450000Y-52463750D03*
X78650000Y-52463750D03*
X73750000Y-52463750D03*
X72950000Y-52463750D03*
X72950000Y-52463750D03*
X73750000Y-52463750D03*
X78650000Y-52463750D03*
X79450000Y-52463750D03*
D21*
X74450000Y-52463750D03*
X74950000Y-52463750D03*
X75450000Y-52463750D03*
X76450000Y-52463750D03*
X76950000Y-52463750D03*
X77450000Y-52463750D03*
X77950000Y-52463750D03*
X75950000Y-52463750D03*
%TD*%
D22*
%TO.C,F1*%
X76200000Y-62706250D03*
X76200000Y-65506250D03*
%TD*%
D23*
%TO.C,D9*%
X107950000Y-93600000D03*
X107950000Y-96900000D03*
%TD*%
%TO.C,D8*%
X88900000Y-93600000D03*
X88900000Y-96900000D03*
%TD*%
%TO.C,D7*%
X69850000Y-93600000D03*
X69850000Y-96900000D03*
%TD*%
%TO.C,D6*%
X107950000Y-74550000D03*
X107950000Y-77850000D03*
%TD*%
%TO.C,D5*%
X88900000Y-74550000D03*
X88900000Y-77850000D03*
%TD*%
%TO.C,D4*%
X69850000Y-74550000D03*
X69850000Y-77850000D03*
%TD*%
%TO.C,D3*%
X107950000Y-55500000D03*
X107950000Y-58800000D03*
%TD*%
%TO.C,D2*%
X88900000Y-55500000D03*
X88900000Y-58800000D03*
%TD*%
%TO.C,D1*%
X69850000Y-55500000D03*
X69850000Y-58800000D03*
%TD*%
M02*
