M48
; DRILL file {KiCad (6.0.1)} date Mon Mar  7 23:29:40 2022
; FORMAT={-:-/ absolute / inch / decimal}
; #@! TF.CreationDate,2022-03-07T23:29:40-05:00
; #@! TF.GenerationSoftware,Kicad,Pcbnew,(6.0.1)
; #@! TF.FileFunction,Plated,1,2,PTH
FMAT,2
INCH
; #@! TA.AperFunction,Plated,PTH,ViaDrill
T1C0.0157
; #@! TA.AperFunction,Plated,PTH,ComponentDrill
T2C0.0236
; #@! TA.AperFunction,Plated,PTH,ComponentDrill
T3C0.0394
; #@! TA.AperFunction,Plated,PTH,ComponentDrill
T4C0.0579
; #@! TA.AperFunction,Plated,PTH,ComponentDrill
T5C0.0591
%
G90
G05
T1
X2.4213Y-3.9656
X2.5551Y-3.2018
X2.75Y-2.375
X2.75Y-3.125
X2.75Y-3.875
X2.7953Y-3.6427
X2.7992Y-3.5955
X2.8504Y-2.7411
X2.8543Y-2.4537
X2.8661Y-3.9656
X2.874Y-3.2333
X2.9016Y-3.0699
X2.9055Y-3.1388
X2.9094Y-2.1624
X2.9391Y-2.1241
X2.9646Y-2.623
X2.9646Y-2.9144
X3.0Y-2.7254
X3.0Y-2.9892
X3.0Y-3.375
X3.0393Y-2.428
X3.0394Y-2.8337
X3.0394Y-3.0207
X3.0508Y-2.1257
X3.0512Y-3.0719
X3.0709Y-3.6073
X3.0886Y-3.1919
X3.0984Y-3.0699
X3.126Y-2.1467
X3.1457Y-2.7608
X3.1476Y-3.6112
X3.1535Y-2.4695
X3.1654Y-3.2411
X3.1929Y-3.4734
X3.1988Y-3.3268
X3.2188Y-2.6562
X3.2756Y-2.3317
X3.2756Y-3.8278
X3.3386Y-3.4144
X3.3858Y-3.4144
X3.5Y-2.375
X3.5Y-3.125
X3.5Y-3.875
X3.5625Y-2.6562
X3.5787Y-3.2215
X3.5827Y-2.8632
X3.6142Y-3.4301
X3.6496Y-3.6309
X3.6713Y-3.2874
X3.752Y-4.001
X3.8031Y-2.8632
X3.8287Y-3.4646
X3.874Y-2.5049
X4.25Y-2.375
X4.25Y-3.125
X4.25Y-3.875
T3
X2.5266Y-1.9744
X2.5266Y-2.5453
X2.5266Y-2.7244
X2.5266Y-3.2953
X2.5266Y-3.4744
X2.5266Y-4.0453
X2.625Y-2.5453
X2.625Y-3.2953
X2.625Y-4.0453
X2.7234Y-1.9744
X2.7234Y-2.5453
X2.7234Y-2.7244
X2.7234Y-3.2953
X2.7234Y-3.4744
X2.7234Y-4.0453
X3.2766Y-1.9744
X3.2766Y-2.5453
X3.2766Y-2.7244
X3.2766Y-3.2953
X3.2766Y-3.4744
X3.2766Y-4.0453
X3.375Y-2.5453
X3.375Y-3.2953
X3.375Y-4.0453
X3.4734Y-1.9744
X3.4734Y-2.5453
X3.4734Y-2.7244
X3.4734Y-3.2953
X3.4734Y-3.4744
X3.4734Y-4.0453
X4.0266Y-1.9744
X4.0266Y-2.5453
X4.0266Y-2.7244
X4.0266Y-3.2953
X4.0266Y-3.4744
X4.0266Y-4.0453
X4.125Y-2.5453
X4.125Y-3.2953
X4.125Y-4.0453
X4.2234Y-1.9744
X4.2234Y-2.5453
X4.2234Y-2.7244
X4.2234Y-3.2953
X4.2234Y-3.4744
X4.2234Y-4.0453
T4
X2.475Y-2.15
X2.475Y-2.9
X2.475Y-3.65
X2.725Y-2.05
X2.725Y-2.8
X2.725Y-3.55
X3.225Y-2.15
X3.225Y-2.9
X3.225Y-3.65
X3.475Y-2.05
X3.475Y-2.8
X3.475Y-3.55
X3.975Y-2.15
X3.975Y-2.9
X3.975Y-3.65
X4.225Y-2.05
X4.225Y-2.8
X4.225Y-3.55
T2
G00X2.8299Y-1.8531
M15
G01X2.8299Y-1.8767
M16
G05
G00X2.8299Y-2.0078
M15
G01X2.8299Y-2.0511
M16
G05
G00X3.1701Y-1.8531
M15
G01X3.1701Y-1.8767
M16
G05
G00X3.1701Y-2.0078
M15
G01X3.1701Y-2.0511
M16
G05
T5
G00X2.4045Y-2.2756
M15
G01X2.4045Y-2.2244
M16
G05
G00X2.4045Y-3.0256
M15
G01X2.4045Y-2.9744
M16
G05
G00X2.4045Y-3.7756
M15
G01X2.4045Y-3.7244
M16
G05
G00X2.8455Y-2.2756
M15
G01X2.8455Y-2.2244
M16
G05
G00X2.8455Y-3.0256
M15
G01X2.8455Y-2.9744
M16
G05
G00X2.8455Y-3.7756
M15
G01X2.8455Y-3.7244
M16
G05
G00X3.1545Y-2.2756
M15
G01X3.1545Y-2.2244
M16
G05
G00X3.1545Y-3.0256
M15
G01X3.1545Y-2.9744
M16
G05
G00X3.1545Y-3.7756
M15
G01X3.1545Y-3.7244
M16
G05
G00X3.5955Y-2.2756
M15
G01X3.5955Y-2.2244
M16
G05
G00X3.5955Y-3.0256
M15
G01X3.5955Y-2.9744
M16
G05
G00X3.5955Y-3.7756
M15
G01X3.5955Y-3.7244
M16
G05
G00X3.9045Y-2.2756
M15
G01X3.9045Y-2.2244
M16
G05
G00X3.9045Y-3.0256
M15
G01X3.9045Y-2.9744
M16
G05
G00X3.9045Y-3.7756
M15
G01X3.9045Y-3.7244
M16
G05
G00X4.3455Y-2.2756
M15
G01X4.3455Y-2.2244
M16
G05
G00X4.3455Y-3.0256
M15
G01X4.3455Y-2.9744
M16
G05
G00X4.3455Y-3.7756
M15
G01X4.3455Y-3.7244
M16
G05
T0
M30
