%TF.GenerationSoftware,KiCad,Pcbnew,(6.0.1)*%
%TF.CreationDate,2022-03-07T23:29:37-05:00*%
%TF.ProjectId,Aioli,41696f6c-692e-46b6-9963-61645f706362,rev?*%
%TF.SameCoordinates,Original*%
%TF.FileFunction,Soldermask,Bot*%
%TF.FilePolarity,Negative*%
%FSLAX46Y46*%
G04 Gerber Fmt 4.6, Leading zero omitted, Abs format (unit mm)*
G04 Created by KiCad (PCBNEW (6.0.1)) date 2022-03-07 23:29:37*
%MOMM*%
%LPD*%
G01*
G04 APERTURE LIST*
G04 Aperture macros list*
%AMRoundRect*
0 Rectangle with rounded corners*
0 $1 Rounding radius*
0 $2 $3 $4 $5 $6 $7 $8 $9 X,Y pos of 4 corners*
0 Add a 4 corners polygon primitive as box body*
4,1,4,$2,$3,$4,$5,$6,$7,$8,$9,$2,$3,0*
0 Add four circle primitives for the rounded corners*
1,1,$1+$1,$2,$3*
1,1,$1+$1,$4,$5*
1,1,$1+$1,$6,$7*
1,1,$1+$1,$8,$9*
0 Add four rect primitives between the rounded corners*
20,1,$1+$1,$2,$3,$4,$5,0*
20,1,$1+$1,$4,$5,$6,$7,0*
20,1,$1+$1,$6,$7,$8,$9,0*
20,1,$1+$1,$8,$9,$2,$3,0*%
G04 Aperture macros list end*
%ADD10C,0.750000*%
%ADD11R,5.200000X5.200000*%
%ADD12RoundRect,0.062500X-0.475000X0.062500X-0.475000X-0.062500X0.475000X-0.062500X0.475000X0.062500X0*%
%ADD13RoundRect,0.062500X-0.062500X0.475000X-0.062500X-0.475000X0.062500X-0.475000X0.062500X0.475000X0*%
%ADD14R,1.800000X1.100000*%
%ADD15C,2.000000*%
%ADD16RoundRect,1.000000X0.000000X-0.650000X0.000000X0.650000X0.000000X0.650000X0.000000X-0.650000X0*%
%ADD17R,2.000000X2.000000*%
%ADD18RoundRect,0.237500X0.237500X-0.250000X0.237500X0.250000X-0.237500X0.250000X-0.237500X-0.250000X0*%
%ADD19RoundRect,0.237500X-0.250000X-0.237500X0.250000X-0.237500X0.250000X0.237500X-0.250000X0.237500X0*%
%ADD20RoundRect,0.237500X0.237500X-0.300000X0.237500X0.300000X-0.237500X0.300000X-0.237500X-0.300000X0*%
%ADD21RoundRect,0.237500X-0.237500X0.300000X-0.237500X-0.300000X0.237500X-0.300000X0.237500X0.300000X0*%
%ADD22RoundRect,0.237500X-0.300000X-0.237500X0.300000X-0.237500X0.300000X0.237500X-0.300000X0.237500X0*%
%ADD23C,2.250000*%
%ADD24C,3.987800*%
%ADD25C,1.750000*%
%ADD26R,1.200000X1.400000*%
%ADD27R,0.600000X1.450000*%
%ADD28R,0.300000X1.450000*%
%ADD29O,1.000000X2.100000*%
%ADD30C,0.650000*%
%ADD31O,1.000000X1.600000*%
%ADD32RoundRect,0.250000X0.625000X-0.375000X0.625000X0.375000X-0.625000X0.375000X-0.625000X-0.375000X0*%
%ADD33R,1.200000X0.900000*%
G04 APERTURE END LIST*
D10*
X95866666Y-50760714D02*
X95866666Y-52665476D01*
X97009523Y-50379761D02*
X93009523Y-51713095D01*
X97009523Y-53046428D01*
X97009523Y-54379761D02*
X94342857Y-54379761D01*
X93009523Y-54379761D02*
X93200000Y-54189285D01*
X93390476Y-54379761D01*
X93200000Y-54570238D01*
X93009523Y-54379761D01*
X93390476Y-54379761D01*
X97009523Y-56855952D02*
X96819047Y-56475000D01*
X96628571Y-56284523D01*
X96247619Y-56094047D01*
X95104761Y-56094047D01*
X94723809Y-56284523D01*
X94533333Y-56475000D01*
X94342857Y-56855952D01*
X94342857Y-57427380D01*
X94533333Y-57808333D01*
X94723809Y-57998809D01*
X95104761Y-58189285D01*
X96247619Y-58189285D01*
X96628571Y-57998809D01*
X96819047Y-57808333D01*
X97009523Y-57427380D01*
X97009523Y-56855952D01*
X97009523Y-60475000D02*
X96819047Y-60094047D01*
X96438095Y-59903571D01*
X93009523Y-59903571D01*
X97009523Y-61998809D02*
X94342857Y-61998809D01*
X93009523Y-61998809D02*
X93200000Y-61808333D01*
X93390476Y-61998809D01*
X93200000Y-62189285D01*
X93009523Y-61998809D01*
X93390476Y-61998809D01*
D11*
%TO.C,U1*%
X76200000Y-85725000D03*
D12*
X72862500Y-83225000D03*
X72862500Y-83725000D03*
X72862500Y-84225000D03*
X72862500Y-84725000D03*
X72862500Y-85225000D03*
X72862500Y-85725000D03*
X72862500Y-86225000D03*
X72862500Y-86725000D03*
X72862500Y-87225000D03*
X72862500Y-87725000D03*
X72862500Y-88225000D03*
D13*
X73700000Y-89062500D03*
X74200000Y-89062500D03*
X74700000Y-89062500D03*
X75200000Y-89062500D03*
X75700000Y-89062500D03*
X76200000Y-89062500D03*
X76700000Y-89062500D03*
X77200000Y-89062500D03*
X77700000Y-89062500D03*
X78200000Y-89062500D03*
X78700000Y-89062500D03*
D12*
X79537500Y-88225000D03*
X79537500Y-87725000D03*
X79537500Y-87225000D03*
X79537500Y-86725000D03*
X79537500Y-86225000D03*
X79537500Y-85725000D03*
X79537500Y-85225000D03*
X79537500Y-84725000D03*
X79537500Y-84225000D03*
X79537500Y-83725000D03*
X79537500Y-83225000D03*
D13*
X78700000Y-82387500D03*
X78200000Y-82387500D03*
X77700000Y-82387500D03*
X77200000Y-82387500D03*
X76700000Y-82387500D03*
X76200000Y-82387500D03*
X75700000Y-82387500D03*
X75200000Y-82387500D03*
X74700000Y-82387500D03*
X74200000Y-82387500D03*
X73700000Y-82387500D03*
%TD*%
D14*
%TO.C,SW10*%
X92150000Y-64825000D03*
X98350000Y-68525000D03*
X92150000Y-68525000D03*
X98350000Y-64825000D03*
%TD*%
D15*
%TO.C,SW9*%
X102275000Y-88250000D03*
X107275000Y-88250000D03*
D16*
X99175000Y-95250000D03*
X110375000Y-95250000D03*
D15*
X102275000Y-102750000D03*
X104775000Y-102750000D03*
D17*
X107275000Y-102750000D03*
%TD*%
D15*
%TO.C,SW8*%
X83225000Y-88250000D03*
X88225000Y-88250000D03*
D16*
X80125000Y-95250000D03*
X91325000Y-95250000D03*
D15*
X83225000Y-102750000D03*
X85725000Y-102750000D03*
D17*
X88225000Y-102750000D03*
%TD*%
D15*
%TO.C,SW7*%
X64175000Y-88250000D03*
X69175000Y-88250000D03*
D16*
X61075000Y-95250000D03*
X72275000Y-95250000D03*
D15*
X64175000Y-102750000D03*
X66675000Y-102750000D03*
D17*
X69175000Y-102750000D03*
%TD*%
D15*
%TO.C,SW6*%
X102275000Y-69200000D03*
X107275000Y-69200000D03*
D16*
X99175000Y-76200000D03*
X110375000Y-76200000D03*
D15*
X102275000Y-83700000D03*
X104775000Y-83700000D03*
D17*
X107275000Y-83700000D03*
%TD*%
D15*
%TO.C,SW5*%
X83225000Y-69200000D03*
X88225000Y-69200000D03*
D16*
X80125000Y-76200000D03*
X91325000Y-76200000D03*
D15*
X83225000Y-83700000D03*
X85725000Y-83700000D03*
D17*
X88225000Y-83700000D03*
%TD*%
D15*
%TO.C,SW4*%
X64175000Y-69200000D03*
X69175000Y-69200000D03*
D16*
X61075000Y-76200000D03*
X72275000Y-76200000D03*
D15*
X64175000Y-83700000D03*
X66675000Y-83700000D03*
D17*
X69175000Y-83700000D03*
%TD*%
D15*
%TO.C,SW3*%
X102275000Y-50150000D03*
X107275000Y-50150000D03*
D16*
X99175000Y-57150000D03*
X110375000Y-57150000D03*
D15*
X102275000Y-64650000D03*
X104775000Y-64650000D03*
D17*
X107275000Y-64650000D03*
%TD*%
D15*
%TO.C,SW2*%
X83225000Y-50150000D03*
X88225000Y-50150000D03*
D16*
X80125000Y-57150000D03*
X91325000Y-57150000D03*
D15*
X83225000Y-64650000D03*
X85725000Y-64650000D03*
D17*
X88225000Y-64650000D03*
%TD*%
D15*
%TO.C,SW1*%
X64175000Y-50150000D03*
X69175000Y-50150000D03*
D16*
X61075000Y-57150000D03*
X72275000Y-57150000D03*
D15*
X64175000Y-64650000D03*
X66675000Y-64650000D03*
D17*
X69175000Y-64650000D03*
%TD*%
D18*
%TO.C,R6*%
X73878918Y-90747426D03*
X73878918Y-92572426D03*
%TD*%
%TO.C,R5*%
X75406250Y-58618750D03*
X75406250Y-60443750D03*
%TD*%
%TO.C,R4*%
X76993750Y-58618750D03*
X76993750Y-60443750D03*
%TD*%
D19*
%TO.C,R3*%
X81081250Y-66675000D03*
X79256250Y-66675000D03*
%TD*%
D18*
%TO.C,R2*%
X76993750Y-68143750D03*
X76993750Y-69968750D03*
%TD*%
%TO.C,R1*%
X75406250Y-68143750D03*
X75406250Y-69968750D03*
%TD*%
D20*
%TO.C,C8*%
X76200000Y-72956250D03*
X76200000Y-74681250D03*
%TD*%
D21*
%TO.C,C7*%
X78975600Y-92512445D03*
X78975600Y-90787445D03*
%TD*%
D20*
%TO.C,C6*%
X79581110Y-78908866D03*
X79581110Y-80633866D03*
%TD*%
D21*
%TO.C,C5*%
X72263095Y-92527784D03*
X72263095Y-90802784D03*
%TD*%
D20*
%TO.C,C4*%
X72814952Y-78896829D03*
X72814952Y-80621829D03*
%TD*%
%TO.C,C3*%
X76250000Y-77718750D03*
X76250000Y-79443750D03*
%TD*%
D22*
%TO.C,C2*%
X96112500Y-82550000D03*
X94387500Y-82550000D03*
%TD*%
%TO.C,C1*%
X96112500Y-88900000D03*
X94387500Y-88900000D03*
%TD*%
D23*
%TO.C,MX7*%
X69215000Y-90170000D03*
D24*
X66675000Y-95250000D03*
D23*
X62865000Y-92710000D03*
D25*
X61595000Y-95250000D03*
X71755000Y-95250000D03*
%TD*%
D23*
%TO.C,MX3*%
X107315000Y-52070000D03*
D24*
X104775000Y-57150000D03*
D23*
X100965000Y-54610000D03*
D25*
X99695000Y-57150000D03*
X109855000Y-57150000D03*
%TD*%
D23*
%TO.C,MX6*%
X107315000Y-71120000D03*
D24*
X104775000Y-76200000D03*
D23*
X100965000Y-73660000D03*
D25*
X99695000Y-76200000D03*
X109855000Y-76200000D03*
%TD*%
D23*
%TO.C,MX1*%
X69215000Y-52070000D03*
D24*
X66675000Y-57150000D03*
D23*
X62865000Y-54610000D03*
D25*
X61595000Y-57150000D03*
X71755000Y-57150000D03*
%TD*%
D23*
%TO.C,MX4*%
X69215000Y-71120000D03*
D24*
X66675000Y-76200000D03*
D23*
X62865000Y-73660000D03*
D25*
X61595000Y-76200000D03*
X71755000Y-76200000D03*
%TD*%
D26*
%TO.C,Y1*%
X96100000Y-86825000D03*
X96100000Y-84625000D03*
X94400000Y-84625000D03*
X94400000Y-86825000D03*
%TD*%
D23*
%TO.C,MX9*%
X107315000Y-90170000D03*
D24*
X104775000Y-95250000D03*
D23*
X100965000Y-92710000D03*
D25*
X99695000Y-95250000D03*
X109855000Y-95250000D03*
%TD*%
D23*
%TO.C,MX8*%
X88265000Y-90170000D03*
D24*
X85725000Y-95250000D03*
D23*
X81915000Y-92710000D03*
D25*
X80645000Y-95250000D03*
X90805000Y-95250000D03*
%TD*%
D23*
%TO.C,MX5*%
X88265000Y-71120000D03*
D24*
X85725000Y-76200000D03*
D23*
X81915000Y-73660000D03*
D25*
X80645000Y-76200000D03*
X90805000Y-76200000D03*
%TD*%
D23*
%TO.C,MX2*%
X88265000Y-52070000D03*
D24*
X85725000Y-57150000D03*
D23*
X81915000Y-54610000D03*
D25*
X80645000Y-57150000D03*
X90805000Y-57150000D03*
%TD*%
D27*
%TO.C,J1*%
X79450000Y-52463750D03*
X78650000Y-52463750D03*
X73750000Y-52463750D03*
X72950000Y-52463750D03*
X72950000Y-52463750D03*
X73750000Y-52463750D03*
X78650000Y-52463750D03*
X79450000Y-52463750D03*
D28*
X74450000Y-52463750D03*
X74950000Y-52463750D03*
X75450000Y-52463750D03*
X76450000Y-52463750D03*
X76950000Y-52463750D03*
X77450000Y-52463750D03*
X77950000Y-52463750D03*
X75950000Y-52463750D03*
D29*
X80520000Y-51548750D03*
X71880000Y-51548750D03*
D30*
X73310000Y-51018750D03*
D31*
X71880000Y-47368750D03*
D30*
X79090000Y-51018750D03*
D31*
X80520000Y-47368750D03*
%TD*%
D32*
%TO.C,F1*%
X76200000Y-62706250D03*
X76200000Y-65506250D03*
%TD*%
D33*
%TO.C,D9*%
X107950000Y-93600000D03*
X107950000Y-96900000D03*
%TD*%
%TO.C,D8*%
X88900000Y-93600000D03*
X88900000Y-96900000D03*
%TD*%
%TO.C,D7*%
X69850000Y-93600000D03*
X69850000Y-96900000D03*
%TD*%
%TO.C,D6*%
X107950000Y-74550000D03*
X107950000Y-77850000D03*
%TD*%
%TO.C,D5*%
X88900000Y-74550000D03*
X88900000Y-77850000D03*
%TD*%
%TO.C,D4*%
X69850000Y-74550000D03*
X69850000Y-77850000D03*
%TD*%
%TO.C,D3*%
X107950000Y-55500000D03*
X107950000Y-58800000D03*
%TD*%
%TO.C,D2*%
X88900000Y-55500000D03*
X88900000Y-58800000D03*
%TD*%
%TO.C,D1*%
X69850000Y-55500000D03*
X69850000Y-58800000D03*
%TD*%
M02*
