%TF.GenerationSoftware,KiCad,Pcbnew,(6.0.1)*%
%TF.CreationDate,2022-03-07T23:29:37-05:00*%
%TF.ProjectId,Aioli,41696f6c-692e-46b6-9963-61645f706362,rev?*%
%TF.SameCoordinates,Original*%
%TF.FileFunction,Legend,Bot*%
%TF.FilePolarity,Positive*%
%FSLAX46Y46*%
G04 Gerber Fmt 4.6, Leading zero omitted, Abs format (unit mm)*
G04 Created by KiCad (PCBNEW (6.0.1)) date 2022-03-07 23:29:37*
%MOMM*%
%LPD*%
G01*
G04 APERTURE LIST*
G04 Aperture macros list*
%AMRoundRect*
0 Rectangle with rounded corners*
0 $1 Rounding radius*
0 $2 $3 $4 $5 $6 $7 $8 $9 X,Y pos of 4 corners*
0 Add a 4 corners polygon primitive as box body*
4,1,4,$2,$3,$4,$5,$6,$7,$8,$9,$2,$3,0*
0 Add four circle primitives for the rounded corners*
1,1,$1+$1,$2,$3*
1,1,$1+$1,$4,$5*
1,1,$1+$1,$6,$7*
1,1,$1+$1,$8,$9*
0 Add four rect primitives between the rounded corners*
20,1,$1+$1,$2,$3,$4,$5,0*
20,1,$1+$1,$4,$5,$6,$7,0*
20,1,$1+$1,$6,$7,$8,$9,0*
20,1,$1+$1,$8,$9,$2,$3,0*%
G04 Aperture macros list end*
%ADD10C,0.250000*%
%ADD11C,0.150000*%
%ADD12C,0.120000*%
%ADD13C,0.750000*%
%ADD14R,5.200000X5.200000*%
%ADD15RoundRect,0.062500X-0.475000X0.062500X-0.475000X-0.062500X0.475000X-0.062500X0.475000X0.062500X0*%
%ADD16RoundRect,0.062500X-0.062500X0.475000X-0.062500X-0.475000X0.062500X-0.475000X0.062500X0.475000X0*%
%ADD17R,1.800000X1.100000*%
%ADD18C,2.000000*%
%ADD19RoundRect,1.000000X0.000000X-0.650000X0.000000X0.650000X0.000000X0.650000X0.000000X-0.650000X0*%
%ADD20R,2.000000X2.000000*%
%ADD21RoundRect,0.237500X0.237500X-0.250000X0.237500X0.250000X-0.237500X0.250000X-0.237500X-0.250000X0*%
%ADD22RoundRect,0.237500X-0.250000X-0.237500X0.250000X-0.237500X0.250000X0.237500X-0.250000X0.237500X0*%
%ADD23RoundRect,0.237500X0.237500X-0.300000X0.237500X0.300000X-0.237500X0.300000X-0.237500X-0.300000X0*%
%ADD24RoundRect,0.237500X-0.237500X0.300000X-0.237500X-0.300000X0.237500X-0.300000X0.237500X0.300000X0*%
%ADD25RoundRect,0.237500X-0.300000X-0.237500X0.300000X-0.237500X0.300000X0.237500X-0.300000X0.237500X0*%
%ADD26C,2.250000*%
%ADD27C,3.987800*%
%ADD28C,1.750000*%
%ADD29R,1.200000X1.400000*%
%ADD30R,0.600000X1.450000*%
%ADD31R,0.300000X1.450000*%
%ADD32O,1.000000X2.100000*%
%ADD33C,0.650000*%
%ADD34O,1.000000X1.600000*%
%ADD35RoundRect,0.250000X0.625000X-0.375000X0.625000X0.375000X-0.625000X0.375000X-0.625000X-0.375000X0*%
%ADD36R,1.200000X0.900000*%
G04 APERTURE END LIST*
D10*
X111198128Y-59983438D02*
X109598128Y-60183438D01*
X111198128Y-60840581D02*
X110283842Y-60312010D01*
X109598128Y-61040581D02*
X110512414Y-60069152D01*
X111198128Y-61483438D02*
X110131461Y-61616772D01*
X109598128Y-61683438D02*
X109674319Y-61602486D01*
X109750509Y-61664391D01*
X109674319Y-61745343D01*
X109598128Y-61683438D01*
X109750509Y-61664391D01*
X111121938Y-62135819D02*
X111198128Y-62269152D01*
X111198128Y-62554867D01*
X111121938Y-62707248D01*
X110969557Y-62797724D01*
X110893366Y-62807248D01*
X110740985Y-62754867D01*
X110664795Y-62621533D01*
X110664795Y-62407248D01*
X110588604Y-62273914D01*
X110436223Y-62221533D01*
X110360033Y-62231057D01*
X110207652Y-62321533D01*
X110131461Y-62473914D01*
X110131461Y-62688200D01*
X110207652Y-62821533D01*
X111121938Y-63992962D02*
X111198128Y-63840581D01*
X111198128Y-63554867D01*
X111121938Y-63421533D01*
X110969557Y-63369152D01*
X110360033Y-63445343D01*
X110207652Y-63535819D01*
X110131461Y-63688200D01*
X110131461Y-63973914D01*
X110207652Y-64107248D01*
X110360033Y-64159629D01*
X110512414Y-64140581D01*
X110664795Y-63407248D01*
X111198128Y-64697724D02*
X110131461Y-64831057D01*
X110436223Y-64792962D02*
X110283842Y-64883438D01*
X110207652Y-64964391D01*
X110131461Y-65116772D01*
X110131461Y-65259629D01*
X111198128Y-65626295D02*
X109598128Y-65826295D01*
X109598128Y-66183438D01*
X109674319Y-66388200D01*
X109826699Y-66512010D01*
X109979080Y-66564391D01*
X110283842Y-66597724D01*
X110512414Y-66569152D01*
X110817176Y-66459629D01*
X110969557Y-66369152D01*
X111121938Y-66207248D01*
X111198128Y-65983438D01*
X111198128Y-65626295D01*
X111121938Y-67707248D02*
X111198128Y-67554867D01*
X111198128Y-67269152D01*
X111121938Y-67135819D01*
X110969557Y-67083438D01*
X110360033Y-67159629D01*
X110207652Y-67250105D01*
X110131461Y-67402486D01*
X110131461Y-67688200D01*
X110207652Y-67821533D01*
X110360033Y-67873914D01*
X110512414Y-67854867D01*
X110664795Y-67121533D01*
X111121938Y-68350105D02*
X111198128Y-68483438D01*
X111198128Y-68769152D01*
X111121938Y-68921533D01*
X110969557Y-69012010D01*
X110893366Y-69021533D01*
X110740985Y-68969152D01*
X110664795Y-68835819D01*
X110664795Y-68621533D01*
X110588604Y-68488200D01*
X110436223Y-68435819D01*
X110360033Y-68445343D01*
X110207652Y-68535819D01*
X110131461Y-68688200D01*
X110131461Y-68902486D01*
X110207652Y-69035819D01*
X111198128Y-69626295D02*
X110131461Y-69759629D01*
X109598128Y-69826295D02*
X109674319Y-69745343D01*
X109750509Y-69807248D01*
X109674319Y-69888200D01*
X109598128Y-69826295D01*
X109750509Y-69807248D01*
X110131461Y-71116772D02*
X111426699Y-70954867D01*
X111579080Y-70864391D01*
X111655271Y-70783438D01*
X111731461Y-70631057D01*
X111731461Y-70416772D01*
X111655271Y-70283438D01*
X111121938Y-70992962D02*
X111198128Y-70840581D01*
X111198128Y-70554867D01*
X111121938Y-70421533D01*
X111045747Y-70359629D01*
X110893366Y-70307248D01*
X110436223Y-70364391D01*
X110283842Y-70454867D01*
X110207652Y-70535819D01*
X110131461Y-70688200D01*
X110131461Y-70973914D01*
X110207652Y-71107248D01*
X110131461Y-71831057D02*
X111198128Y-71697724D01*
X110283842Y-71812010D02*
X110207652Y-71892962D01*
X110131461Y-72045343D01*
X110131461Y-72259629D01*
X110207652Y-72392962D01*
X110360033Y-72445343D01*
X111198128Y-72340581D01*
X111121938Y-72992962D02*
X111198128Y-73126295D01*
X111198128Y-73412010D01*
X111121938Y-73564391D01*
X110969557Y-73654867D01*
X110893366Y-73664391D01*
X110740985Y-73612010D01*
X110664795Y-73478676D01*
X110664795Y-73264391D01*
X110588604Y-73131057D01*
X110436223Y-73078676D01*
X110360033Y-73088200D01*
X110207652Y-73178676D01*
X110131461Y-73331057D01*
X110131461Y-73545343D01*
X110207652Y-73678676D01*
X111045747Y-78859629D02*
X111121938Y-78921533D01*
X111198128Y-78840581D01*
X111121938Y-78778676D01*
X111045747Y-78859629D01*
X111198128Y-78840581D01*
X111121938Y-80207248D02*
X111198128Y-80054867D01*
X111198128Y-79769152D01*
X111121938Y-79635819D01*
X111045747Y-79573914D01*
X110893366Y-79521533D01*
X110436223Y-79578676D01*
X110283842Y-79669152D01*
X110207652Y-79750105D01*
X110131461Y-79902486D01*
X110131461Y-80188200D01*
X110207652Y-80321533D01*
X111198128Y-81054867D02*
X111121938Y-80921533D01*
X111045747Y-80859629D01*
X110893366Y-80807248D01*
X110436223Y-80864391D01*
X110283842Y-80954867D01*
X110207652Y-81035819D01*
X110131461Y-81188200D01*
X110131461Y-81402486D01*
X110207652Y-81535819D01*
X110283842Y-81597724D01*
X110436223Y-81650105D01*
X110893366Y-81592962D01*
X111045747Y-81502486D01*
X111121938Y-81421533D01*
X111198128Y-81269152D01*
X111198128Y-81054867D01*
X111198128Y-82197724D02*
X110131461Y-82331057D01*
X110283842Y-82312010D02*
X110207652Y-82392962D01*
X110131461Y-82545343D01*
X110131461Y-82759629D01*
X110207652Y-82892962D01*
X110360033Y-82945343D01*
X111198128Y-82840581D01*
X110360033Y-82945343D02*
X110207652Y-83035819D01*
X110131461Y-83188200D01*
X110131461Y-83402486D01*
X110207652Y-83535819D01*
X110360033Y-83588200D01*
X111198128Y-83483438D01*
D11*
%TO.C,U1*%
X70832380Y-84963095D02*
X71641904Y-84963095D01*
X71737142Y-85010714D01*
X71784761Y-85058333D01*
X71832380Y-85153571D01*
X71832380Y-85344047D01*
X71784761Y-85439285D01*
X71737142Y-85486904D01*
X71641904Y-85534523D01*
X70832380Y-85534523D01*
X71832380Y-86534523D02*
X71832380Y-85963095D01*
X71832380Y-86248809D02*
X70832380Y-86248809D01*
X70975238Y-86153571D01*
X71070476Y-86058333D01*
X71118095Y-85963095D01*
%TO.C,R6*%
X75895773Y-91648802D02*
X75419583Y-91315469D01*
X75895773Y-91077373D02*
X74895773Y-91077373D01*
X74895773Y-91458326D01*
X74943393Y-91553564D01*
X74991012Y-91601183D01*
X75086250Y-91648802D01*
X75229107Y-91648802D01*
X75324345Y-91601183D01*
X75371964Y-91553564D01*
X75419583Y-91458326D01*
X75419583Y-91077373D01*
X74895773Y-92505945D02*
X74895773Y-92315469D01*
X74943393Y-92220230D01*
X74991012Y-92172611D01*
X75133869Y-92077373D01*
X75324345Y-92029754D01*
X75705297Y-92029754D01*
X75800535Y-92077373D01*
X75848154Y-92124992D01*
X75895773Y-92220230D01*
X75895773Y-92410707D01*
X75848154Y-92505945D01*
X75800535Y-92553564D01*
X75705297Y-92601183D01*
X75467202Y-92601183D01*
X75371964Y-92553564D01*
X75324345Y-92505945D01*
X75276726Y-92410707D01*
X75276726Y-92220230D01*
X75324345Y-92124992D01*
X75371964Y-92077373D01*
X75467202Y-92029754D01*
%TO.C,R5*%
X74652380Y-59364583D02*
X74176190Y-59031250D01*
X74652380Y-58793154D02*
X73652380Y-58793154D01*
X73652380Y-59174107D01*
X73700000Y-59269345D01*
X73747619Y-59316964D01*
X73842857Y-59364583D01*
X73985714Y-59364583D01*
X74080952Y-59316964D01*
X74128571Y-59269345D01*
X74176190Y-59174107D01*
X74176190Y-58793154D01*
X73652380Y-60269345D02*
X73652380Y-59793154D01*
X74128571Y-59745535D01*
X74080952Y-59793154D01*
X74033333Y-59888392D01*
X74033333Y-60126488D01*
X74080952Y-60221726D01*
X74128571Y-60269345D01*
X74223809Y-60316964D01*
X74461904Y-60316964D01*
X74557142Y-60269345D01*
X74604761Y-60221726D01*
X74652380Y-60126488D01*
X74652380Y-59888392D01*
X74604761Y-59793154D01*
X74557142Y-59745535D01*
%TO.C,R4*%
X78876130Y-59364583D02*
X78399940Y-59031250D01*
X78876130Y-58793154D02*
X77876130Y-58793154D01*
X77876130Y-59174107D01*
X77923750Y-59269345D01*
X77971369Y-59316964D01*
X78066607Y-59364583D01*
X78209464Y-59364583D01*
X78304702Y-59316964D01*
X78352321Y-59269345D01*
X78399940Y-59174107D01*
X78399940Y-58793154D01*
X78209464Y-60221726D02*
X78876130Y-60221726D01*
X77828511Y-59983630D02*
X78542797Y-59745535D01*
X78542797Y-60364583D01*
%TO.C,R3*%
X80335416Y-68557380D02*
X80668750Y-68081190D01*
X80906845Y-68557380D02*
X80906845Y-67557380D01*
X80525892Y-67557380D01*
X80430654Y-67605000D01*
X80383035Y-67652619D01*
X80335416Y-67747857D01*
X80335416Y-67890714D01*
X80383035Y-67985952D01*
X80430654Y-68033571D01*
X80525892Y-68081190D01*
X80906845Y-68081190D01*
X80002083Y-67557380D02*
X79383035Y-67557380D01*
X79716369Y-67938333D01*
X79573511Y-67938333D01*
X79478273Y-67985952D01*
X79430654Y-68033571D01*
X79383035Y-68128809D01*
X79383035Y-68366904D01*
X79430654Y-68462142D01*
X79478273Y-68509761D01*
X79573511Y-68557380D01*
X79859226Y-68557380D01*
X79954464Y-68509761D01*
X80002083Y-68462142D01*
%TO.C,R2*%
X78955388Y-68863796D02*
X78479198Y-68530463D01*
X78955388Y-68292367D02*
X77955388Y-68292367D01*
X77955388Y-68673320D01*
X78003008Y-68768558D01*
X78050627Y-68816177D01*
X78145865Y-68863796D01*
X78288722Y-68863796D01*
X78383960Y-68816177D01*
X78431579Y-68768558D01*
X78479198Y-68673320D01*
X78479198Y-68292367D01*
X78050627Y-69244748D02*
X78003008Y-69292367D01*
X77955388Y-69387605D01*
X77955388Y-69625701D01*
X78003008Y-69720939D01*
X78050627Y-69768558D01*
X78145865Y-69816177D01*
X78241103Y-69816177D01*
X78383960Y-69768558D01*
X78955388Y-69197129D01*
X78955388Y-69816177D01*
%TO.C,R1*%
X74487806Y-68887815D02*
X74011616Y-68554482D01*
X74487806Y-68316386D02*
X73487806Y-68316386D01*
X73487806Y-68697339D01*
X73535426Y-68792577D01*
X73583045Y-68840196D01*
X73678283Y-68887815D01*
X73821140Y-68887815D01*
X73916378Y-68840196D01*
X73963997Y-68792577D01*
X74011616Y-68697339D01*
X74011616Y-68316386D01*
X74487806Y-69840196D02*
X74487806Y-69268767D01*
X74487806Y-69554482D02*
X73487806Y-69554482D01*
X73630664Y-69459243D01*
X73725902Y-69364005D01*
X73773521Y-69268767D01*
%TO.C,C8*%
X77987142Y-73652083D02*
X78034761Y-73604464D01*
X78082380Y-73461607D01*
X78082380Y-73366369D01*
X78034761Y-73223511D01*
X77939523Y-73128273D01*
X77844285Y-73080654D01*
X77653809Y-73033035D01*
X77510952Y-73033035D01*
X77320476Y-73080654D01*
X77225238Y-73128273D01*
X77130000Y-73223511D01*
X77082380Y-73366369D01*
X77082380Y-73461607D01*
X77130000Y-73604464D01*
X77177619Y-73652083D01*
X77510952Y-74223511D02*
X77463333Y-74128273D01*
X77415714Y-74080654D01*
X77320476Y-74033035D01*
X77272857Y-74033035D01*
X77177619Y-74080654D01*
X77130000Y-74128273D01*
X77082380Y-74223511D01*
X77082380Y-74413988D01*
X77130000Y-74509226D01*
X77177619Y-74556845D01*
X77272857Y-74604464D01*
X77320476Y-74604464D01*
X77415714Y-74556845D01*
X77463333Y-74509226D01*
X77510952Y-74413988D01*
X77510952Y-74223511D01*
X77558571Y-74128273D01*
X77606190Y-74080654D01*
X77701428Y-74033035D01*
X77891904Y-74033035D01*
X77987142Y-74080654D01*
X78034761Y-74128273D01*
X78082380Y-74223511D01*
X78082380Y-74413988D01*
X78034761Y-74509226D01*
X77987142Y-74556845D01*
X77891904Y-74604464D01*
X77701428Y-74604464D01*
X77606190Y-74556845D01*
X77558571Y-74509226D01*
X77510952Y-74413988D01*
%TO.C,C7*%
X77289729Y-91576744D02*
X77337348Y-91529125D01*
X77384967Y-91386268D01*
X77384967Y-91291030D01*
X77337348Y-91148172D01*
X77242110Y-91052934D01*
X77146872Y-91005315D01*
X76956396Y-90957696D01*
X76813539Y-90957696D01*
X76623063Y-91005315D01*
X76527825Y-91052934D01*
X76432587Y-91148172D01*
X76384967Y-91291030D01*
X76384967Y-91386268D01*
X76432587Y-91529125D01*
X76480206Y-91576744D01*
X76384967Y-91910077D02*
X76384967Y-92576744D01*
X77384967Y-92148172D01*
%TO.C,C6*%
X78595938Y-79408248D02*
X78643557Y-79360629D01*
X78691176Y-79217772D01*
X78691176Y-79122534D01*
X78643557Y-78979676D01*
X78548319Y-78884438D01*
X78453081Y-78836819D01*
X78262605Y-78789200D01*
X78119748Y-78789200D01*
X77929272Y-78836819D01*
X77834034Y-78884438D01*
X77738796Y-78979676D01*
X77691176Y-79122534D01*
X77691176Y-79217772D01*
X77738796Y-79360629D01*
X77786415Y-79408248D01*
X77691176Y-80265391D02*
X77691176Y-80074915D01*
X77738796Y-79979676D01*
X77786415Y-79932057D01*
X77929272Y-79836819D01*
X78119748Y-79789200D01*
X78500700Y-79789200D01*
X78595938Y-79836819D01*
X78643557Y-79884438D01*
X78691176Y-79979676D01*
X78691176Y-80170153D01*
X78643557Y-80265391D01*
X78595938Y-80313010D01*
X78500700Y-80360629D01*
X78262605Y-80360629D01*
X78167367Y-80313010D01*
X78119748Y-80265391D01*
X78072129Y-80170153D01*
X78072129Y-79979676D01*
X78119748Y-79884438D01*
X78167367Y-79836819D01*
X78262605Y-79789200D01*
%TO.C,C5*%
X71750451Y-88703700D02*
X71798070Y-88656081D01*
X71845689Y-88513224D01*
X71845689Y-88417986D01*
X71798070Y-88275128D01*
X71702832Y-88179890D01*
X71607594Y-88132271D01*
X71417118Y-88084652D01*
X71274261Y-88084652D01*
X71083785Y-88132271D01*
X70988547Y-88179890D01*
X70893309Y-88275128D01*
X70845689Y-88417986D01*
X70845689Y-88513224D01*
X70893309Y-88656081D01*
X70940928Y-88703700D01*
X70845689Y-89608462D02*
X70845689Y-89132271D01*
X71321880Y-89084652D01*
X71274261Y-89132271D01*
X71226642Y-89227509D01*
X71226642Y-89465605D01*
X71274261Y-89560843D01*
X71321880Y-89608462D01*
X71417118Y-89656081D01*
X71655213Y-89656081D01*
X71750451Y-89608462D01*
X71798070Y-89560843D01*
X71845689Y-89465605D01*
X71845689Y-89227509D01*
X71798070Y-89132271D01*
X71750451Y-89084652D01*
%TO.C,C4*%
X71750451Y-79648441D02*
X71798070Y-79600822D01*
X71845689Y-79457965D01*
X71845689Y-79362727D01*
X71798070Y-79219869D01*
X71702832Y-79124631D01*
X71607594Y-79077012D01*
X71417118Y-79029393D01*
X71274261Y-79029393D01*
X71083785Y-79077012D01*
X70988547Y-79124631D01*
X70893309Y-79219869D01*
X70845689Y-79362727D01*
X70845689Y-79457965D01*
X70893309Y-79600822D01*
X70940928Y-79648441D01*
X71179023Y-80505584D02*
X71845689Y-80505584D01*
X70798070Y-80267488D02*
X71512356Y-80029393D01*
X71512356Y-80648441D01*
%TO.C,C3*%
X75209223Y-78375421D02*
X75256842Y-78327802D01*
X75304461Y-78184945D01*
X75304461Y-78089707D01*
X75256842Y-77946849D01*
X75161604Y-77851611D01*
X75066366Y-77803992D01*
X74875890Y-77756373D01*
X74733033Y-77756373D01*
X74542557Y-77803992D01*
X74447319Y-77851611D01*
X74352081Y-77946849D01*
X74304461Y-78089707D01*
X74304461Y-78184945D01*
X74352081Y-78327802D01*
X74399700Y-78375421D01*
X74304461Y-78708754D02*
X74304461Y-79327802D01*
X74685414Y-78994468D01*
X74685414Y-79137326D01*
X74733033Y-79232564D01*
X74780652Y-79280183D01*
X74875890Y-79327802D01*
X75113985Y-79327802D01*
X75209223Y-79280183D01*
X75256842Y-79232564D01*
X75304461Y-79137326D01*
X75304461Y-78851611D01*
X75256842Y-78756373D01*
X75209223Y-78708754D01*
%TO.C,C2*%
X95459132Y-81397232D02*
X95506751Y-81444851D01*
X95649608Y-81492470D01*
X95744846Y-81492470D01*
X95887704Y-81444851D01*
X95982942Y-81349613D01*
X96030561Y-81254375D01*
X96078180Y-81063899D01*
X96078180Y-80921042D01*
X96030561Y-80730566D01*
X95982942Y-80635328D01*
X95887704Y-80540090D01*
X95744846Y-80492470D01*
X95649608Y-80492470D01*
X95506751Y-80540090D01*
X95459132Y-80587709D01*
X95078180Y-80587709D02*
X95030561Y-80540090D01*
X94935323Y-80492470D01*
X94697227Y-80492470D01*
X94601989Y-80540090D01*
X94554370Y-80587709D01*
X94506751Y-80682947D01*
X94506751Y-80778185D01*
X94554370Y-80921042D01*
X95125799Y-81492470D01*
X94506751Y-81492470D01*
%TO.C,C1*%
X95411094Y-90908857D02*
X95458713Y-90956476D01*
X95601570Y-91004095D01*
X95696808Y-91004095D01*
X95839666Y-90956476D01*
X95934904Y-90861238D01*
X95982523Y-90766000D01*
X96030142Y-90575524D01*
X96030142Y-90432667D01*
X95982523Y-90242191D01*
X95934904Y-90146953D01*
X95839666Y-90051715D01*
X95696808Y-90004095D01*
X95601570Y-90004095D01*
X95458713Y-90051715D01*
X95411094Y-90099334D01*
X94458713Y-91004095D02*
X95030142Y-91004095D01*
X94744428Y-91004095D02*
X94744428Y-90004095D01*
X94839666Y-90146953D01*
X94934904Y-90242191D01*
X95030142Y-90289810D01*
%TO.C,Y1*%
X92722615Y-85391769D02*
X93198805Y-85391769D01*
X92198805Y-85058436D02*
X92722615Y-85391769D01*
X92198805Y-85725102D01*
X93198805Y-86582245D02*
X93198805Y-86010817D01*
X93198805Y-86296531D02*
X92198805Y-86296531D01*
X92341663Y-86201293D01*
X92436901Y-86106055D01*
X92484520Y-86010817D01*
%TO.C,F1*%
X74300267Y-63725143D02*
X74300267Y-63391810D01*
X74824076Y-63391810D02*
X73824076Y-63391810D01*
X73824076Y-63868000D01*
X74824076Y-64772762D02*
X74824076Y-64201334D01*
X74824076Y-64487048D02*
X73824076Y-64487048D01*
X73966934Y-64391810D01*
X74062172Y-64296572D01*
X74109791Y-64201334D01*
D12*
%TO.C,U1*%
X73305873Y-81756250D02*
G75*
G03*
X73305873Y-81756250I-280873J0D01*
G01*
X72590000Y-82840000D02*
X72590000Y-82115000D01*
X79810000Y-89335000D02*
X79085000Y-89335000D01*
X79810000Y-88610000D02*
X79810000Y-89335000D01*
X79810000Y-82115000D02*
X79085000Y-82115000D01*
X79810000Y-82840000D02*
X79810000Y-82115000D01*
X72590000Y-89335000D02*
X73315000Y-89335000D01*
X72590000Y-88610000D02*
X72590000Y-89335000D01*
D11*
%TO.C,SW10*%
X96250000Y-66675000D02*
G75*
G03*
X96250000Y-66675000I-1000000J0D01*
G01*
D12*
%TO.C,SW9*%
X104775000Y-95750000D02*
X104775000Y-94750000D01*
X105275000Y-95250000D02*
X104275000Y-95250000D01*
%TO.C,SW8*%
X85725000Y-95750000D02*
X85725000Y-94750000D01*
X86225000Y-95250000D02*
X85225000Y-95250000D01*
%TO.C,SW7*%
X66675000Y-95750000D02*
X66675000Y-94750000D01*
X67175000Y-95250000D02*
X66175000Y-95250000D01*
%TO.C,SW6*%
X104775000Y-76700000D02*
X104775000Y-75700000D01*
X105275000Y-76200000D02*
X104275000Y-76200000D01*
%TO.C,SW5*%
X85725000Y-76700000D02*
X85725000Y-75700000D01*
X86225000Y-76200000D02*
X85225000Y-76200000D01*
%TO.C,SW4*%
X66675000Y-76700000D02*
X66675000Y-75700000D01*
X67175000Y-76200000D02*
X66175000Y-76200000D01*
%TO.C,SW3*%
X104775000Y-57650000D02*
X104775000Y-56650000D01*
X105275000Y-57150000D02*
X104275000Y-57150000D01*
%TO.C,SW2*%
X85725000Y-57650000D02*
X85725000Y-56650000D01*
X86225000Y-57150000D02*
X85225000Y-57150000D01*
%TO.C,SW1*%
X66675000Y-57650000D02*
X66675000Y-56650000D01*
X67175000Y-57150000D02*
X66175000Y-57150000D01*
%TO.C,R6*%
X73356418Y-91914650D02*
X73356418Y-91405202D01*
X74401418Y-91914650D02*
X74401418Y-91405202D01*
%TO.C,R5*%
X74883750Y-59785974D02*
X74883750Y-59276526D01*
X75928750Y-59785974D02*
X75928750Y-59276526D01*
%TO.C,R4*%
X76471250Y-59785974D02*
X76471250Y-59276526D01*
X77516250Y-59785974D02*
X77516250Y-59276526D01*
%TO.C,R3*%
X79914026Y-66152500D02*
X80423474Y-66152500D01*
X79914026Y-67197500D02*
X80423474Y-67197500D01*
%TO.C,R2*%
X76471250Y-69310974D02*
X76471250Y-68801526D01*
X77516250Y-69310974D02*
X77516250Y-68801526D01*
%TO.C,R1*%
X74883750Y-69310974D02*
X74883750Y-68801526D01*
X75928750Y-69310974D02*
X75928750Y-68801526D01*
%TO.C,C8*%
X75690000Y-73965017D02*
X75690000Y-73672483D01*
X76710000Y-73965017D02*
X76710000Y-73672483D01*
%TO.C,C7*%
X79485600Y-91503678D02*
X79485600Y-91796212D01*
X78465600Y-91503678D02*
X78465600Y-91796212D01*
%TO.C,C6*%
X79071110Y-79917633D02*
X79071110Y-79625099D01*
X80091110Y-79917633D02*
X80091110Y-79625099D01*
%TO.C,C5*%
X72773095Y-91519017D02*
X72773095Y-91811551D01*
X71753095Y-91519017D02*
X71753095Y-91811551D01*
%TO.C,C4*%
X72304952Y-79905596D02*
X72304952Y-79613062D01*
X73324952Y-79905596D02*
X73324952Y-79613062D01*
%TO.C,C3*%
X75740000Y-78727517D02*
X75740000Y-78434983D01*
X76760000Y-78727517D02*
X76760000Y-78434983D01*
%TO.C,C2*%
X95103733Y-82040000D02*
X95396267Y-82040000D01*
X95103733Y-83060000D02*
X95396267Y-83060000D01*
%TO.C,C1*%
X95103733Y-88390000D02*
X95396267Y-88390000D01*
X95103733Y-89410000D02*
X95396267Y-89410000D01*
%TO.C,Y1*%
X93600000Y-87725000D02*
X93600000Y-83725000D01*
X96900000Y-87725000D02*
X93600000Y-87725000D01*
%TO.C,J1*%
X71500000Y-44518750D02*
X80900000Y-44518750D01*
X80900000Y-50318750D02*
X80900000Y-48318750D01*
X80900000Y-46418750D02*
X80900000Y-44518750D01*
X71500000Y-50318750D02*
X71500000Y-48318750D01*
X71500000Y-46418750D02*
X71500000Y-44518750D01*
%TO.C,F1*%
X75290000Y-64708314D02*
X75290000Y-63504186D01*
X77110000Y-64708314D02*
X77110000Y-63504186D01*
%TO.C,D9*%
X108950000Y-97500000D02*
X108950000Y-93600000D01*
X106950000Y-97500000D02*
X106950000Y-93600000D01*
X108950000Y-97500000D02*
X106950000Y-97500000D01*
%TO.C,D8*%
X89900000Y-97500000D02*
X89900000Y-93600000D01*
X87900000Y-97500000D02*
X87900000Y-93600000D01*
X89900000Y-97500000D02*
X87900000Y-97500000D01*
%TO.C,D7*%
X70850000Y-97500000D02*
X70850000Y-93600000D01*
X68850000Y-97500000D02*
X68850000Y-93600000D01*
X70850000Y-97500000D02*
X68850000Y-97500000D01*
%TO.C,D6*%
X108950000Y-78450000D02*
X108950000Y-74550000D01*
X106950000Y-78450000D02*
X106950000Y-74550000D01*
X108950000Y-78450000D02*
X106950000Y-78450000D01*
%TO.C,D5*%
X89900000Y-78450000D02*
X89900000Y-74550000D01*
X87900000Y-78450000D02*
X87900000Y-74550000D01*
X89900000Y-78450000D02*
X87900000Y-78450000D01*
%TO.C,D4*%
X70850000Y-78450000D02*
X70850000Y-74550000D01*
X68850000Y-78450000D02*
X68850000Y-74550000D01*
X70850000Y-78450000D02*
X68850000Y-78450000D01*
%TO.C,D3*%
X108950000Y-59400000D02*
X108950000Y-55500000D01*
X106950000Y-59400000D02*
X106950000Y-55500000D01*
X108950000Y-59400000D02*
X106950000Y-59400000D01*
%TO.C,D2*%
X89900000Y-59400000D02*
X89900000Y-55500000D01*
X87900000Y-59400000D02*
X87900000Y-55500000D01*
X89900000Y-59400000D02*
X87900000Y-59400000D01*
%TO.C,D1*%
X70850000Y-59400000D02*
X70850000Y-55500000D01*
X68850000Y-59400000D02*
X68850000Y-55500000D01*
X70850000Y-59400000D02*
X68850000Y-59400000D01*
%TD*%
%LPC*%
D13*
X95866666Y-50760714D02*
X95866666Y-52665476D01*
X97009523Y-50379761D02*
X93009523Y-51713095D01*
X97009523Y-53046428D01*
X97009523Y-54379761D02*
X94342857Y-54379761D01*
X93009523Y-54379761D02*
X93200000Y-54189285D01*
X93390476Y-54379761D01*
X93200000Y-54570238D01*
X93009523Y-54379761D01*
X93390476Y-54379761D01*
X97009523Y-56855952D02*
X96819047Y-56475000D01*
X96628571Y-56284523D01*
X96247619Y-56094047D01*
X95104761Y-56094047D01*
X94723809Y-56284523D01*
X94533333Y-56475000D01*
X94342857Y-56855952D01*
X94342857Y-57427380D01*
X94533333Y-57808333D01*
X94723809Y-57998809D01*
X95104761Y-58189285D01*
X96247619Y-58189285D01*
X96628571Y-57998809D01*
X96819047Y-57808333D01*
X97009523Y-57427380D01*
X97009523Y-56855952D01*
X97009523Y-60475000D02*
X96819047Y-60094047D01*
X96438095Y-59903571D01*
X93009523Y-59903571D01*
X97009523Y-61998809D02*
X94342857Y-61998809D01*
X93009523Y-61998809D02*
X93200000Y-61808333D01*
X93390476Y-61998809D01*
X93200000Y-62189285D01*
X93009523Y-61998809D01*
X93390476Y-61998809D01*
D14*
%TO.C,U1*%
X76200000Y-85725000D03*
D15*
X72862500Y-83225000D03*
X72862500Y-83725000D03*
X72862500Y-84225000D03*
X72862500Y-84725000D03*
X72862500Y-85225000D03*
X72862500Y-85725000D03*
X72862500Y-86225000D03*
X72862500Y-86725000D03*
X72862500Y-87225000D03*
X72862500Y-87725000D03*
X72862500Y-88225000D03*
D16*
X73700000Y-89062500D03*
X74200000Y-89062500D03*
X74700000Y-89062500D03*
X75200000Y-89062500D03*
X75700000Y-89062500D03*
X76200000Y-89062500D03*
X76700000Y-89062500D03*
X77200000Y-89062500D03*
X77700000Y-89062500D03*
X78200000Y-89062500D03*
X78700000Y-89062500D03*
D15*
X79537500Y-88225000D03*
X79537500Y-87725000D03*
X79537500Y-87225000D03*
X79537500Y-86725000D03*
X79537500Y-86225000D03*
X79537500Y-85725000D03*
X79537500Y-85225000D03*
X79537500Y-84725000D03*
X79537500Y-84225000D03*
X79537500Y-83725000D03*
X79537500Y-83225000D03*
D16*
X78700000Y-82387500D03*
X78200000Y-82387500D03*
X77700000Y-82387500D03*
X77200000Y-82387500D03*
X76700000Y-82387500D03*
X76200000Y-82387500D03*
X75700000Y-82387500D03*
X75200000Y-82387500D03*
X74700000Y-82387500D03*
X74200000Y-82387500D03*
X73700000Y-82387500D03*
%TD*%
D17*
%TO.C,SW10*%
X92150000Y-64825000D03*
X98350000Y-68525000D03*
X92150000Y-68525000D03*
X98350000Y-64825000D03*
%TD*%
D18*
%TO.C,SW9*%
X102275000Y-88250000D03*
X107275000Y-88250000D03*
D19*
X99175000Y-95250000D03*
X110375000Y-95250000D03*
D18*
X102275000Y-102750000D03*
X104775000Y-102750000D03*
D20*
X107275000Y-102750000D03*
%TD*%
D18*
%TO.C,SW8*%
X83225000Y-88250000D03*
X88225000Y-88250000D03*
D19*
X80125000Y-95250000D03*
X91325000Y-95250000D03*
D18*
X83225000Y-102750000D03*
X85725000Y-102750000D03*
D20*
X88225000Y-102750000D03*
%TD*%
D18*
%TO.C,SW7*%
X64175000Y-88250000D03*
X69175000Y-88250000D03*
D19*
X61075000Y-95250000D03*
X72275000Y-95250000D03*
D18*
X64175000Y-102750000D03*
X66675000Y-102750000D03*
D20*
X69175000Y-102750000D03*
%TD*%
D18*
%TO.C,SW6*%
X102275000Y-69200000D03*
X107275000Y-69200000D03*
D19*
X99175000Y-76200000D03*
X110375000Y-76200000D03*
D18*
X102275000Y-83700000D03*
X104775000Y-83700000D03*
D20*
X107275000Y-83700000D03*
%TD*%
D18*
%TO.C,SW5*%
X83225000Y-69200000D03*
X88225000Y-69200000D03*
D19*
X80125000Y-76200000D03*
X91325000Y-76200000D03*
D18*
X83225000Y-83700000D03*
X85725000Y-83700000D03*
D20*
X88225000Y-83700000D03*
%TD*%
D18*
%TO.C,SW4*%
X64175000Y-69200000D03*
X69175000Y-69200000D03*
D19*
X61075000Y-76200000D03*
X72275000Y-76200000D03*
D18*
X64175000Y-83700000D03*
X66675000Y-83700000D03*
D20*
X69175000Y-83700000D03*
%TD*%
D18*
%TO.C,SW3*%
X102275000Y-50150000D03*
X107275000Y-50150000D03*
D19*
X99175000Y-57150000D03*
X110375000Y-57150000D03*
D18*
X102275000Y-64650000D03*
X104775000Y-64650000D03*
D20*
X107275000Y-64650000D03*
%TD*%
D18*
%TO.C,SW2*%
X83225000Y-50150000D03*
X88225000Y-50150000D03*
D19*
X80125000Y-57150000D03*
X91325000Y-57150000D03*
D18*
X83225000Y-64650000D03*
X85725000Y-64650000D03*
D20*
X88225000Y-64650000D03*
%TD*%
D18*
%TO.C,SW1*%
X64175000Y-50150000D03*
X69175000Y-50150000D03*
D19*
X61075000Y-57150000D03*
X72275000Y-57150000D03*
D18*
X64175000Y-64650000D03*
X66675000Y-64650000D03*
D20*
X69175000Y-64650000D03*
%TD*%
D21*
%TO.C,R6*%
X73878918Y-90747426D03*
X73878918Y-92572426D03*
%TD*%
%TO.C,R5*%
X75406250Y-58618750D03*
X75406250Y-60443750D03*
%TD*%
%TO.C,R4*%
X76993750Y-58618750D03*
X76993750Y-60443750D03*
%TD*%
D22*
%TO.C,R3*%
X81081250Y-66675000D03*
X79256250Y-66675000D03*
%TD*%
D21*
%TO.C,R2*%
X76993750Y-68143750D03*
X76993750Y-69968750D03*
%TD*%
%TO.C,R1*%
X75406250Y-68143750D03*
X75406250Y-69968750D03*
%TD*%
D23*
%TO.C,C8*%
X76200000Y-72956250D03*
X76200000Y-74681250D03*
%TD*%
D24*
%TO.C,C7*%
X78975600Y-92512445D03*
X78975600Y-90787445D03*
%TD*%
D23*
%TO.C,C6*%
X79581110Y-78908866D03*
X79581110Y-80633866D03*
%TD*%
D24*
%TO.C,C5*%
X72263095Y-92527784D03*
X72263095Y-90802784D03*
%TD*%
D23*
%TO.C,C4*%
X72814952Y-78896829D03*
X72814952Y-80621829D03*
%TD*%
%TO.C,C3*%
X76250000Y-77718750D03*
X76250000Y-79443750D03*
%TD*%
D25*
%TO.C,C2*%
X96112500Y-82550000D03*
X94387500Y-82550000D03*
%TD*%
%TO.C,C1*%
X96112500Y-88900000D03*
X94387500Y-88900000D03*
%TD*%
D26*
%TO.C,MX7*%
X69215000Y-90170000D03*
D27*
X66675000Y-95250000D03*
D26*
X62865000Y-92710000D03*
D28*
X61595000Y-95250000D03*
X71755000Y-95250000D03*
%TD*%
D26*
%TO.C,MX3*%
X107315000Y-52070000D03*
D27*
X104775000Y-57150000D03*
D26*
X100965000Y-54610000D03*
D28*
X99695000Y-57150000D03*
X109855000Y-57150000D03*
%TD*%
D26*
%TO.C,MX6*%
X107315000Y-71120000D03*
D27*
X104775000Y-76200000D03*
D26*
X100965000Y-73660000D03*
D28*
X99695000Y-76200000D03*
X109855000Y-76200000D03*
%TD*%
D26*
%TO.C,MX1*%
X69215000Y-52070000D03*
D27*
X66675000Y-57150000D03*
D26*
X62865000Y-54610000D03*
D28*
X61595000Y-57150000D03*
X71755000Y-57150000D03*
%TD*%
D26*
%TO.C,MX4*%
X69215000Y-71120000D03*
D27*
X66675000Y-76200000D03*
D26*
X62865000Y-73660000D03*
D28*
X61595000Y-76200000D03*
X71755000Y-76200000D03*
%TD*%
D29*
%TO.C,Y1*%
X96100000Y-86825000D03*
X96100000Y-84625000D03*
X94400000Y-84625000D03*
X94400000Y-86825000D03*
%TD*%
D26*
%TO.C,MX9*%
X107315000Y-90170000D03*
D27*
X104775000Y-95250000D03*
D26*
X100965000Y-92710000D03*
D28*
X99695000Y-95250000D03*
X109855000Y-95250000D03*
%TD*%
D26*
%TO.C,MX8*%
X88265000Y-90170000D03*
D27*
X85725000Y-95250000D03*
D26*
X81915000Y-92710000D03*
D28*
X80645000Y-95250000D03*
X90805000Y-95250000D03*
%TD*%
D26*
%TO.C,MX5*%
X88265000Y-71120000D03*
D27*
X85725000Y-76200000D03*
D26*
X81915000Y-73660000D03*
D28*
X80645000Y-76200000D03*
X90805000Y-76200000D03*
%TD*%
D26*
%TO.C,MX2*%
X88265000Y-52070000D03*
D27*
X85725000Y-57150000D03*
D26*
X81915000Y-54610000D03*
D28*
X80645000Y-57150000D03*
X90805000Y-57150000D03*
%TD*%
D30*
%TO.C,J1*%
X79450000Y-52463750D03*
X78650000Y-52463750D03*
X73750000Y-52463750D03*
X72950000Y-52463750D03*
X72950000Y-52463750D03*
X73750000Y-52463750D03*
X78650000Y-52463750D03*
X79450000Y-52463750D03*
D31*
X74450000Y-52463750D03*
X74950000Y-52463750D03*
X75450000Y-52463750D03*
X76450000Y-52463750D03*
X76950000Y-52463750D03*
X77450000Y-52463750D03*
X77950000Y-52463750D03*
X75950000Y-52463750D03*
D32*
X80520000Y-51548750D03*
X71880000Y-51548750D03*
D33*
X73310000Y-51018750D03*
D34*
X71880000Y-47368750D03*
D33*
X79090000Y-51018750D03*
D34*
X80520000Y-47368750D03*
%TD*%
D35*
%TO.C,F1*%
X76200000Y-62706250D03*
X76200000Y-65506250D03*
%TD*%
D36*
%TO.C,D9*%
X107950000Y-93600000D03*
X107950000Y-96900000D03*
%TD*%
%TO.C,D8*%
X88900000Y-93600000D03*
X88900000Y-96900000D03*
%TD*%
%TO.C,D7*%
X69850000Y-93600000D03*
X69850000Y-96900000D03*
%TD*%
%TO.C,D6*%
X107950000Y-74550000D03*
X107950000Y-77850000D03*
%TD*%
%TO.C,D5*%
X88900000Y-74550000D03*
X88900000Y-77850000D03*
%TD*%
%TO.C,D4*%
X69850000Y-74550000D03*
X69850000Y-77850000D03*
%TD*%
%TO.C,D3*%
X107950000Y-55500000D03*
X107950000Y-58800000D03*
%TD*%
%TO.C,D2*%
X88900000Y-55500000D03*
X88900000Y-58800000D03*
%TD*%
%TO.C,D1*%
X69850000Y-55500000D03*
X69850000Y-58800000D03*
%TD*%
M02*
